<svg width="216" height="36" viewBox="0 0 216 36" fill="none" xmlns="http://www.w3.org/2000/svg">
<path d="M140.08 26.336C138.752 26.336 137.52 26.128 136.384 25.712C135.248 25.28 134.264 24.672 133.432 23.888C132.616 23.104 131.976 22.184 131.512 21.128C131.048 20.056 130.816 18.88 130.816 17.6C130.816 16.32 131.048 15.152 131.512 14.096C131.976 13.024 132.624 12.096 133.456 11.312C134.288 10.528 135.272 9.928 136.408 9.512C137.56 9.08 138.816 8.864 140.176 8.864C141.76 8.864 143.176 9.128 144.424 9.656C145.672 10.184 146.704 10.944 147.52 11.936L144.496 14.672C143.92 14.048 143.296 13.584 142.624 13.28C141.968 12.96 141.232 12.8 140.416 12.8C139.696 12.8 139.04 12.912 138.448 13.136C137.856 13.36 137.352 13.688 136.936 14.12C136.52 14.536 136.192 15.04 135.952 15.632C135.728 16.208 135.616 16.864 135.616 17.6C135.616 18.304 135.728 18.952 135.952 19.544C136.192 20.136 136.52 20.648 136.936 21.08C137.352 21.496 137.848 21.824 138.424 22.064C139.016 22.288 139.664 22.4 140.368 22.4C141.072 22.4 141.76 22.288 142.432 22.064C143.104 21.824 143.784 21.424 144.472 20.864L147.136 24.2C146.176 24.888 145.064 25.416 143.8 25.784C142.536 26.152 141.296 26.336 140.08 26.336ZM142.936 23.576V17.24H147.136V24.2L142.936 23.576ZM150.629 26V9.2H158.309C159.845 9.2 161.165 9.448 162.269 9.944C163.389 10.44 164.253 11.16 164.861 12.104C165.469 13.032 165.773 14.136 165.773 15.416C165.773 16.68 165.469 17.776 164.861 18.704C164.253 19.616 163.389 20.32 162.269 20.816C161.165 21.296 159.845 21.536 158.309 21.536H153.269L155.381 19.544V26H150.629ZM161.021 26L156.845 19.88H161.909L166.109 26H161.021ZM155.381 20.048L153.269 17.864H158.021C159.013 17.864 159.749 17.648 160.229 17.216C160.725 16.784 160.973 16.184 160.973 15.416C160.973 14.632 160.725 14.024 160.229 13.592C159.749 13.16 159.013 12.944 158.021 12.944H153.269L155.381 10.76V20.048ZM177.346 26.336C176.002 26.336 174.762 26.12 173.626 25.688C172.49 25.256 171.498 24.648 170.65 23.864C169.818 23.064 169.17 22.136 168.706 21.08C168.242 20.024 168.01 18.864 168.01 17.6C168.01 16.336 168.242 15.176 168.706 14.12C169.17 13.064 169.818 12.144 170.65 11.36C171.498 10.56 172.49 9.944 173.626 9.512C174.762 9.08 176.002 8.864 177.346 8.864C178.706 8.864 179.946 9.08 181.066 9.512C182.202 9.944 183.186 10.56 184.018 11.36C184.85 12.144 185.498 13.064 185.962 14.12C186.442 15.176 186.682 16.336 186.682 17.6C186.682 18.864 186.442 20.032 185.962 21.104C185.498 22.16 184.85 23.08 184.018 23.864C183.186 24.648 182.202 25.256 181.066 25.688C179.946 26.12 178.706 26.336 177.346 26.336ZM177.346 22.4C177.986 22.4 178.578 22.288 179.122 22.064C179.682 21.84 180.162 21.52 180.562 21.104C180.978 20.672 181.298 20.16 181.522 19.568C181.762 18.976 181.882 18.32 181.882 17.6C181.882 16.864 181.762 16.208 181.522 15.632C181.298 15.04 180.978 14.536 180.562 14.12C180.162 13.688 179.682 13.36 179.122 13.136C178.578 12.912 177.986 12.8 177.346 12.8C176.706 12.8 176.106 12.912 175.546 13.136C175.002 13.36 174.522 13.688 174.106 14.12C173.706 14.536 173.386 15.04 173.146 15.632C172.922 16.208 172.81 16.864 172.81 17.6C172.81 18.32 172.922 18.976 173.146 19.568C173.386 20.16 173.706 20.672 174.106 21.104C174.522 21.52 175.002 21.84 175.546 22.064C176.106 22.288 176.706 22.4 177.346 22.4ZM193.241 26L187.793 9.2H192.689L197.273 23.744H194.801L199.625 9.2H203.993L208.553 23.744H206.177L210.905 9.2H215.441L209.993 26H204.905L201.017 13.64H202.385L198.329 26H193.241Z" fill="#333333"/>
<path fill-rule="evenodd" clip-rule="evenodd" d="M124 18C124 20.8737 123.401 23.5901 122.337 26H109C111.463 22.2281 114 17.6606 114 13C114 7.00236 109.938 1.95335 104.416 0.453392C105.568 0.156712 106.768 0 108 0C116.837 0 124 8.05888 124 18ZM110 13C110 8.02944 105.971 4 101 4C94.3493 4 92 12.5071 92 18C92 27.9411 99.1634 36 108 36C112.739 36 116.996 33.6825 119.926 30H101C101.352 29.5514 101.72 29.0891 102.099 28.6142C105.616 24.2012 110 18.6997 110 13Z" fill="#3A5BA0"/>
<path d="M9.25006 26V12.968H4.09006V9.2H19.1381V12.968H14.0021V26H9.25006ZM32.6204 9.2H37.3724V26H32.6204V9.2ZM26.1404 26H21.3884V9.2H26.1404V26ZM32.9564 19.448H25.8044V15.512H32.9564V19.448ZM41.2044 26V9.2H45.9564V26H41.2044ZM49.8172 26V9.2H53.7292L62.9932 20.384H61.1452V9.2H65.8012V26H61.8892L52.6252 14.816H54.4732V26H49.8172ZM73.8811 22.28L73.6171 16.952L80.8411 9.2H86.0731L78.8731 17L76.2331 19.76L73.8811 22.28ZM69.6331 26V9.2H74.3371V26H69.6331ZM80.9131 26L75.4411 19.064L78.5371 15.752L86.4331 26H80.9131Z" fill="#333333"/>
</svg>
